<svg width="16" height="16" viewBox="0 0 16 16" fill="none" xmlns="http://www.w3.org/2000/svg">
<path d="M8 16C6.90278 16 5.86806 15.7917 4.89583 15.375C3.92361 14.9583 3.06944 14.3889 2.33333 13.6667C1.61111 12.9306 1.04167 12.0764 0.625 11.1042C0.208334 10.1319 1.78814e-07 9.09722 1.78814e-07 8C1.78814e-07 6.88889 0.208334 5.85417 0.625 4.89583C1.04167 3.92361 1.61111 3.07639 2.33333 2.35417C3.06944 1.61805 3.92361 1.04167 4.89583 0.624999C5.86806 0.208333 6.90278 -7.15256e-07 8 -7.15256e-07C8.22222 -7.15256e-07 8.40278 0.0694435 8.54167 0.208332C8.68056 0.347221 8.75 0.527777 8.75 0.749999C8.75 0.958332 8.68056 1.13889 8.54167 1.29167C8.40278 1.43055 8.22222 1.5 8 1.5C6.19444 1.5 4.65972 2.13194 3.39583 3.39583C2.13194 4.64583 1.5 6.18056 1.5 8C1.5 9.80556 2.13194 11.3403 3.39583 12.6042C4.65972 13.8681 6.19444 14.5 8 14.5C9.81944 14.5 11.3542 13.8681 12.6042 12.6042C13.8681 11.3403 14.5 9.80556 14.5 8C14.5 7.77778 14.5694 7.59722 14.7083 7.45833C14.8611 7.31944 15.0417 7.25 15.25 7.25C15.4722 7.25 15.6528 7.31944 15.7917 7.45833C15.9306 7.59722 16 7.77778 16 8C16 9.09722 15.7917 10.1319 15.375 11.1042C14.9583 12.0764 14.3819 12.9306 13.6458 13.6667C12.9236 14.3889 12.0764 14.9583 11.1042 15.375C10.1458 15.7917 9.11111 16 8 16Z" fill="white"/>
</svg>